General
ID : 1 (0x1)
Complete name : Linkin Park - Powerless(OST-Abraham Lincoln-Vampire Hunter) 720PHD {ECS}.m2ts
Format : BDAV
Format/Info : Blu-ray Video
File size : 27.7 MiB
Duration : 3mn 3s
Overall bit rate mode : Variable
Overall bit rate : 1 267 Kbps
Maximum Overall bit rate : 35.5 Mbps

Video
ID : 4113 (0x1011)
Menu ID : 1 (0x1)
Format : AVC
Format/Info : Advanced Video Codec
Format profile : High@L3.1
Format settings, CABAC : Yes
Format settings, ReFrames : 5 frames
Codec ID : 27
Duration : 3mn 3s
Bit rate mode : Variable
Bit rate : 824 Kbps
Nominal bit rate : 734 Kbps
Maximum bit rate : 40.0 Mbps
Width : 1 280 pixels
Height : 528 pixels
Display aspect ratio : 2.40:1
Frame rate : 24.000 fps
Color space : YUV
Chroma subsampling : 4:2:0
Bit depth : 8 bits
Scan type : Progressive
Bits/(Pixel*Frame) : 0.051
Stream size : 18.0 MiB (65%)
Writing library : x264 core 125 r2200 999b753

Audio
ID : 4352 (0x1100)
Menu ID : 1 (0x1)
Format : AC-3
Format/Info : Audio Coding 3
Mode extension : CM (complete main)
Format settings, Endianness : Big
Codec ID : 129
Duration : 3mn 3s
Bit rate mode : Constant
Bit rate : 384 Kbps
Channel(s) : 2 channels
Channel positions : Front: L R
Sampling rate : 44.1 KHz
Bit depth : 16 bits
Compression mode : Lossy
Stream size : 8.40 MiB (30%